<svg width="161" height="40" viewBox="0 0 161 40" fill="none" xmlns="http://www.w3.org/2000/svg">
<g id="Logo/Bedrock DAO">
<g id="Vector">
<path d="M11.9799 23.5094L9 27.9046L9.1954 29.5286L13.0741 32.5419C13.0741 32.5419 17.2752 35.8262 19.5443 36.1481C20.2966 36.2546 27.4116 30.7799 32.133 28.333C35.9653 26.346 38.2002 25.5933 38.2002 25.5933L43.1047 26.5445L33.7524 17.7274C33.7524 17.7274 27.011 21.837 25.3941 23.507C23.7772 25.177 19.5296 28.183 19.5296 28.183L14.9451 26.8083L11.9799 23.507V23.5094Z" fill="url(#paint0_linear_1599_95)"/>
<path d="M15.2821 15.5347L12.4684 19.6757L15.1991 22.8487L19.3953 24.1339L26.271 18.3736L30.3158 16.0695L33.1466 14.8183L28.8332 11.3282C28.8332 11.3282 23.4401 11.6622 21.4861 14.0656C21.4861 14.0656 17.7124 17.6718 17.1042 17.2046L15.2846 15.5347H15.2821Z" fill="url(#paint1_linear_1599_95)"/>
<path d="M22.065 3.84961L15.7047 12.3326C15.7047 12.3326 16.8722 14.0656 17.5244 13.7025C18.2571 13.2959 20.9512 10.5247 22.1553 9.96078C24.5661 8.83052 23.4987 9.16936 26.271 8.4578L28.2421 8.79906L22.065 3.84961Z" fill="url(#paint2_linear_1599_95)"/>
</g>
<g id="BEDROCK">
<path d="M64.8048 13.7215C64.8048 14.152 64.72 14.5549 64.5504 14.9303C64.386 15.3007 64.1599 15.6261 63.8721 15.9064C63.5894 16.1817 63.2554 16.3994 62.87 16.5596C62.4846 16.7198 62.0761 16.7999 61.6444 16.7999H54.1598V15.2607H61.6444C61.8603 15.2607 62.0632 15.2207 62.2534 15.1406C62.4486 15.0605 62.6182 14.9504 62.7621 14.8102C62.906 14.6701 63.019 14.5074 63.1013 14.3222C63.1835 14.132 63.2246 13.9318 63.2246 13.7215C63.2246 13.5113 63.1835 13.3136 63.1013 13.1284C63.019 12.9432 62.906 12.7805 62.7621 12.6404C62.6182 12.5002 62.4486 12.3901 62.2534 12.31C62.0632 12.2299 61.8603 12.1899 61.6444 12.1899H54.1598V10.6507H60.0643C60.2801 10.6507 60.4831 10.6107 60.6732 10.5306C60.8685 10.4505 61.0381 10.3404 61.1819 10.2002C61.3258 10.0601 61.4389 9.89739 61.5211 9.71219C61.6033 9.52198 61.6444 9.32177 61.6444 9.11154C61.6444 8.90131 61.6033 8.7036 61.5211 8.5184C61.4389 8.32819 61.3258 8.16301 61.1819 8.02286C61.0381 7.88271 60.8685 7.77259 60.6732 7.6925C60.4831 7.61241 60.2801 7.57237 60.0643 7.57237H53.3736V16.7999H51.7935V6.0332H60.0643C60.4959 6.0332 60.9045 6.11579 61.2899 6.28097C61.6753 6.44115 62.0093 6.66138 62.2919 6.94169C62.5797 7.21699 62.8058 7.54234 62.9702 7.91775C63.1398 8.29315 63.2246 8.69108 63.2246 9.11154C63.2246 9.43689 63.1758 9.74472 63.0781 10.035C62.9805 10.3203 62.8495 10.5856 62.685 10.8309C62.9934 10.936 63.276 11.0837 63.5329 11.2739C63.795 11.4641 64.0185 11.6843 64.2035 11.9346C64.3937 12.1849 64.5401 12.4627 64.6429 12.768C64.7508 13.0683 64.8048 13.3862 64.8048 13.7215Z" fill="white"/>
<path d="M78.0859 16.7999H66.6547V6.0332H78.0859V7.57237H68.2349V15.2607H78.0859V16.7999ZM76.7446 12.1899H69.0211V10.6507H76.7446V12.1899Z" fill="white"/>
<path d="M93.0781 11.4165C93.0781 12.1623 92.9548 12.8631 92.7082 13.5188C92.4666 14.1745 92.1223 14.7451 91.6753 15.2307C91.2282 15.7162 90.6912 16.0991 90.0643 16.3794C89.4425 16.6597 88.7513 16.7999 87.9908 16.7999H82.4178V15.2607H87.9908C88.5355 15.2607 89.0237 15.1606 89.4553 14.9604C89.8921 14.7602 90.2595 14.4874 90.5576 14.142C90.8608 13.7916 91.092 13.3837 91.2513 12.9182C91.4158 12.4477 91.498 11.9471 91.498 11.4165C91.498 10.886 91.4158 10.3879 91.2513 9.92242C91.092 9.45691 90.8608 9.05147 90.5576 8.7061C90.2595 8.35572 89.8921 8.08042 89.4553 7.8802C89.0237 7.67498 88.5355 7.57237 87.9908 7.57237H81.6316V16.7999H80.0514V6.0332H87.9908C88.7513 6.0332 89.4425 6.17586 90.0643 6.46117C90.6912 6.74147 91.2282 7.12689 91.6753 7.61742C92.1223 8.10295 92.4666 8.67356 92.7082 9.32927C92.9548 9.97998 93.0781 10.6757 93.0781 11.4165Z" fill="white"/>
<path d="M107.855 16.7999H105.719L102.405 13.7215H97.5643V12.2049H103.908C104.237 12.2049 104.545 12.1448 104.833 12.0247C105.121 11.8996 105.37 11.7319 105.581 11.5217C105.797 11.3114 105.966 11.0662 106.089 10.7859C106.213 10.5005 106.274 10.1977 106.274 9.87737C106.274 9.55702 106.213 9.2567 106.089 8.97639C105.966 8.69609 105.797 8.45333 105.581 8.2481C105.37 8.03788 105.121 7.8727 104.833 7.75257C104.545 7.63244 104.237 7.57237 103.908 7.57237H96.6778V16.7999H95.0977V6.0332H103.908C104.453 6.0332 104.964 6.13581 105.442 6.34104C105.92 6.54125 106.336 6.81655 106.691 7.16693C107.05 7.51231 107.333 7.91775 107.539 8.38325C107.749 8.84875 107.855 9.34679 107.855 9.87737C107.855 10.3579 107.77 10.8134 107.6 11.2438C107.431 11.6693 107.197 12.0522 106.899 12.3926C106.601 12.728 106.249 13.0083 105.843 13.2335C105.442 13.4537 105.008 13.6014 104.54 13.6765L107.855 16.7999Z" fill="white"/>
<path d="M123.078 11.4165C123.078 12.1623 122.957 12.8631 122.716 13.5188C122.474 14.1745 122.13 14.7451 121.683 15.2307C121.241 15.7162 120.709 16.0991 120.087 16.3794C119.466 16.6597 118.774 16.7999 118.014 16.7999H114.337C113.571 16.7999 112.875 16.6597 112.248 16.3794C111.621 16.0991 111.084 15.7162 110.637 15.2307C110.195 14.7451 109.854 14.1745 109.612 13.5188C109.371 12.8631 109.25 12.1623 109.25 11.4165C109.25 10.6757 109.371 9.97998 109.612 9.32927C109.854 8.67356 110.195 8.10295 110.637 7.61742C111.084 7.12689 111.621 6.74147 112.248 6.46117C112.875 6.17586 113.571 6.0332 114.337 6.0332H118.014C118.774 6.0332 119.466 6.17586 120.087 6.46117C120.709 6.74147 121.241 7.12689 121.683 7.61742C122.13 8.10295 122.474 8.67356 122.716 9.32927C122.957 9.97998 123.078 10.6757 123.078 11.4165ZM121.498 11.4165C121.498 10.886 121.418 10.3879 121.259 9.92242C121.1 9.45691 120.868 9.05147 120.565 8.7061C120.267 8.35572 119.902 8.08042 119.471 7.8802C119.044 7.67498 118.559 7.57237 118.014 7.57237H114.337C113.792 7.57237 113.302 7.67498 112.865 7.8802C112.433 8.08042 112.066 8.35572 111.763 8.7061C111.465 9.05147 111.233 9.45691 111.069 9.92242C110.91 10.3879 110.83 10.886 110.83 11.4165C110.83 11.9471 110.91 12.4477 111.069 12.9182C111.233 13.3837 111.465 13.7916 111.763 14.142C112.066 14.4874 112.433 14.7602 112.865 14.9604C113.302 15.1606 113.792 15.2607 114.337 15.2607H118.014C118.559 15.2607 119.044 15.1606 119.471 14.9604C119.902 14.7602 120.267 14.4874 120.565 14.142C120.868 13.7916 121.1 13.3837 121.259 12.9182C121.418 12.4477 121.498 11.9471 121.498 11.4165Z" fill="white"/>
<path d="M136.668 16.7999H129.553C128.787 16.7999 128.091 16.6597 127.464 16.3794C126.837 16.0991 126.3 15.7162 125.853 15.2307C125.411 14.7451 125.069 14.1745 124.828 13.5188C124.586 12.8631 124.466 12.1623 124.466 11.4165C124.466 10.6757 124.586 9.97998 124.828 9.32927C125.069 8.67356 125.411 8.10295 125.853 7.61742C126.3 7.12689 126.837 6.74147 127.464 6.46117C128.091 6.17586 128.787 6.0332 129.553 6.0332H136.668V7.57237H129.553C129.008 7.57237 128.518 7.67498 128.081 7.8802C127.649 8.08042 127.282 8.35572 126.978 8.7061C126.68 9.05147 126.449 9.45691 126.285 9.92242C126.125 10.3879 126.046 10.886 126.046 11.4165C126.046 11.9471 126.125 12.4477 126.285 12.9182C126.449 13.3837 126.68 13.7916 126.978 14.142C127.282 14.4874 127.649 14.7602 128.081 14.9604C128.518 15.1606 129.008 15.2607 129.553 15.2607H136.668V16.7999Z" fill="white"/>
<path d="M151.436 16.7999H149.309L143.667 11.2664L140.167 13.7215V16.7999H138.587V6.0332H140.167V12.0322L148.831 6.0332H151.136L144.869 10.418L151.436 16.7999Z" fill="white"/>
</g>
<path id="Union" fill-rule="evenodd" clip-rule="evenodd" d="M63.8489 30.4427C64.0799 29.8356 64.1955 29.1859 64.1955 28.4934C64.1955 27.8105 64.0799 27.1702 63.8489 26.5727C63.6178 25.9656 63.2863 25.4344 62.8543 24.9791C62.4323 24.5144 61.9199 24.1539 61.3171 23.8978C60.7244 23.6417 60.0664 23.5137 59.343 23.5137H51.7629V33.4732H53.2699V24.9365H59.343C60.0362 24.9365 60.634 25.0977 61.1363 25.4202C61.6386 25.7332 62.0204 26.1601 62.2816 26.7007C62.5529 27.2414 62.6885 27.839 62.6885 28.4934C62.6885 29.1479 62.5529 29.7455 62.2816 30.2862C62.0204 30.8173 61.6386 31.2442 61.1363 31.5667C60.634 31.8892 60.0362 32.0504 59.343 32.0504H54.0234V33.4732H59.343C60.0664 33.4732 60.7244 33.3452 61.3171 33.0891C61.9199 32.833 62.4323 32.4773 62.8543 32.022C63.2863 31.5667 63.6178 31.0402 63.8489 30.4427ZM78.1217 33.4732H76.6147V30.6276H68.1907V29.2048H76.6147V24.9365H71.2047C70.5215 24.9365 69.8936 25.0977 69.321 25.4202C68.7483 25.7332 68.2912 26.1601 67.9496 26.7007C67.6181 27.2414 67.4523 27.839 67.4523 28.4934V33.4732H65.9453V28.4934C65.9453 27.8105 66.081 27.1702 66.3522 26.5727C66.6235 25.9656 67.0002 25.4344 67.4825 24.9791C67.9647 24.5144 68.5223 24.1539 69.1552 23.8978C69.7982 23.6417 70.4813 23.5137 71.2047 23.5137H78.1217V33.4732ZM93.25 28.4934C93.25 29.1859 93.1345 29.8356 92.9034 30.4427C92.6724 31.0402 92.3408 31.5667 91.9088 32.022C91.4869 32.4773 90.9795 32.833 90.3868 33.0891C89.794 33.3452 89.136 33.4732 88.4127 33.4732H84.9014C84.168 33.4732 83.5049 33.3452 82.9122 33.0891C82.3195 32.833 81.8071 32.4773 81.3751 32.022C80.9531 31.5667 80.6266 31.0402 80.3956 30.4427C80.1645 29.8356 80.0489 29.1859 80.0489 28.4934C80.0489 27.8105 80.1645 27.1702 80.3956 26.5727C80.6266 25.9656 80.9531 25.4344 81.3751 24.9791C81.8071 24.5144 82.3195 24.1539 82.9122 23.8978C83.5049 23.6417 84.168 23.5137 84.9014 23.5137H88.4127C89.136 23.5137 89.794 23.6417 90.3868 23.8978C90.9795 24.1539 91.4869 24.5144 91.9088 24.9791C92.3408 25.4344 92.6724 25.9656 92.9034 26.5727C93.1345 27.1702 93.25 27.8105 93.25 28.4934ZM91.7431 28.4934C91.7431 27.839 91.6074 27.2414 91.3362 26.7007C91.075 26.1601 90.6932 25.7332 90.1909 25.4202C89.6986 25.0977 89.1059 24.9365 88.4127 24.9365H84.9014C84.2082 24.9365 83.6104 25.0977 83.1081 25.4202C82.6158 25.7332 82.2341 26.1601 81.9628 26.7007C81.6915 27.2414 81.5559 27.839 81.5559 28.4934C81.5559 29.1479 81.6915 29.7455 81.9628 30.2862C82.2341 30.8173 82.6158 31.2442 83.1081 31.5667C83.6104 31.8892 84.2082 32.0504 84.9014 32.0504H88.4127C89.1059 32.0504 89.6986 31.8892 90.1909 31.5667C90.6932 31.2442 91.075 30.8173 91.3362 30.2862C91.6074 29.7455 91.7431 29.1479 91.7431 28.4934Z" fill="white"/>
</g>
<defs>
<linearGradient id="paint0_linear_1599_95" x1="43.1047" y1="40.8421" x2="18.3121" y2="0.740859" gradientUnits="userSpaceOnUse">
<stop offset="0.333372" stop-color="#3FB0FF"/>
<stop offset="0.71875" stop-color="#9236EA"/>
<stop offset="1" stop-color="#F29A6B"/>
</linearGradient>
<linearGradient id="paint1_linear_1599_95" x1="43.1047" y1="40.8421" x2="18.3121" y2="0.740859" gradientUnits="userSpaceOnUse">
<stop offset="0.333372" stop-color="#3FB0FF"/>
<stop offset="0.71875" stop-color="#9236EA"/>
<stop offset="1" stop-color="#F29A6B"/>
</linearGradient>
<linearGradient id="paint2_linear_1599_95" x1="43.1047" y1="40.8421" x2="18.3121" y2="0.740859" gradientUnits="userSpaceOnUse">
<stop offset="0.333372" stop-color="#3FB0FF"/>
<stop offset="0.71875" stop-color="#9236EA"/>
<stop offset="1" stop-color="#F29A6B"/>
</linearGradient>
</defs>
</svg>
